<?xml version="1.0" encoding="UTF-8"?>
<svg id="Layer_1" xmlns="http://www.w3.org/2000/svg" version="1.1" viewBox="0 0 400 400">
  <!-- Generator: Adobe Illustrator 29.3.1, SVG Export Plug-In . SVG Version: 2.1.0 Build 151)  -->
  <defs>
    <style>
      .st0 {
        fill-rule: evenodd;
      }

      .st0, .st1 {
        fill: #fff;
      }

      .st2 {
        fill: #4c4c4c;
      }
    </style>
  </defs>
  <rect class="st2" y="148.2" width="400" height="71.5" rx="6" ry="6"/>
  <path class="st1" d="M33.6,200.1h-.5l-2.7-2.6v-.5l4.2-4h2.9l.4.4v2.8s-4.2,4-4.2,4ZM30.3,170.4v-.5l2.7-2.6h.5l4.2,4v2.8l-.4.4h-2.9l-4.2-4ZM54.4,191.7h-4l-.3-.3v-9c0-1.6-.7-2.8-2.7-2.9-1,0-2.2,0-3.5,0l-.2.2v11.6l-.3.3h-4l-.3-.3v-15.3l.3-.3h9c3.5,0,6.3,2.7,6.3,6.1v9.6s-.3.3-.3.3ZM34.1,185.9h-15.9l-.3-.3v-3.8l.3-.3h15.9l.3.3v3.8l-.3.3h0ZM75.6,185.9h-15.9l-.3-.3v-3.8l.3-.3h15.9l.3.3v3.8l-.3.3h0ZM44.6,170.9v-11.5l.3-.3h4l.3.3v11.5l-.3.3h-4l-.3-.3h0ZM44.6,207.9v-11.5l.3-.3h4l.3.3v11.5l-.3.3h-4l-.3-.3h0ZM346.7,172c-1,.9-1.4,2.2-1.4,3.9v2.3h-2.7v3.7h2.7v13.6h4.4v-13.6h3.7v-3.7h-3.7v-2.3c0-1.2.6-1.8,1.9-1.8h2.3v-3.5h-3.1c-1.7,0-3,.5-4,1.4h0ZM337.3,170.9c-.8,0-1.5.3-2,.8-.5.5-.7,1.1-.7,1.9s.2,1.4.7,1.9c.5.5,1.2.8,2,.8s1.4-.3,1.9-.8c.5-.5.8-1.2.8-1.9s-.2-1.4-.8-1.9c-.5-.5-1.1-.8-1.9-.8ZM163.6,170.9h4.4v24.7h-4.4v-24.7Z"/>
  <path class="st0" d="M105.7,172c2.6,0,4.8.5,6.7,1.4,1.9.9,3.3,2.3,4.3,4.1,1,1.8,1.5,3.9,1.5,6.3s-.5,4.6-1.5,6.3c-1,1.8-2.4,3.1-4.3,4-1.9.9-4.1,1.4-6.7,1.4h-7.4v-23.6h7.4ZM105.5,191.2c2.4,0,4.3-.6,5.7-1.9h0c1.4-1.3,2.1-3.1,2.1-5.4s-.7-4.2-2.1-5.5c-1.4-1.3-3.3-1.9-5.7-1.9h-2.5v14.8h2.5ZM130,177.9c1.8,0,3.3.4,4.7,1.1h0c1.4.7,2.4,1.7,3.1,3.1s1.1,2.9,1.1,4.7v1.5h-13.1c0,.6.2,1.2.4,1.7.4.7.8,1.2,1.5,1.6.6.4,1.4.6,2.3.6s1.7-.2,2.3-.4,1.1-.7,1.4-1.2h4.7c-.4,1.1-.9,2-1.7,2.8-.8.8-1.7,1.5-2.9,1.9-1.1.5-2.4.7-3.8.7s-3.3-.4-4.7-1.1c-1.3-.7-2.4-1.8-3.1-3.2-.7-1.3-1.1-2.9-1.1-4.7s.4-3.4,1.1-4.7,1.8-2.4,3.1-3.2c1.4-.7,2.9-1.1,4.7-1.1ZM130,181.7c-.8,0-1.5.2-2.2.6-.6.4-1.2.9-1.5,1.6-.2.4-.3.8-.4,1.2h8.4c-.2-1.2-.9-2.3-2-2.8-.6-.4-1.4-.5-2.2-.5ZM156.8,178.9c-1.2-.7-2.5-1.1-4-1.1s-2.9.4-4,1.1c-.6.4-1.2,1-1.6,1.6v-2.3h-4.4v23.3h4.4v-8.2c.4.6,1,1.2,1.6,1.7,1.1.7,2.4,1.1,4,1.1s2.9-.4,4-1.1c1.2-.7,2.1-1.8,2.7-3.1.6-1.4,1-3,1-4.9s-.3-3.5-1-4.9c-.6-1.4-1.6-2.4-2.7-3.1,0,0,0,0,0,0ZM155.3,189.8c-.4.8-.9,1.4-1.6,1.8-.6.4-1.4.6-2.2.6-1.3,0-2.4-.5-3.2-1.4-.8-.9-1.2-2.2-1.2-3.8s.4-2.9,1.2-3.8,1.9-1.4,3.2-1.4,1.6.2,2.2.6c.7.4,1.2,1,1.6,1.8.4.8.6,1.7.6,2.7s-.2,2-.6,2.8h0ZM185.1,179.1c-1.4-.8-3-1.2-4.8-1.2s-3.5.4-4.8,1.2c-1.4.8-2.4,1.9-3.1,3.2-.7,1.4-1.1,2.9-1.1,4.7s.4,3.3,1.1,4.7c.7,1.4,1.8,2.4,3.1,3.2,1.4.8,3,1.2,4.8,1.2s3.5-.4,4.8-1.2c1.4-.8,2.4-1.9,3.1-3.3.7-1.4,1.1-2.9,1.1-4.6s-.4-3.3-1.1-4.7c-.7-1.4-1.7-2.5-3.1-3.2ZM184.2,189.6c-.4.8-.9,1.3-1.6,1.7-.7.4-1.5.6-2.3.6s-1.7-.2-2.4-.6c-.7-.4-1.2-1-1.6-1.7-.4-.8-.5-1.6-.5-2.6s.2-1.9.5-2.7c.4-.8.9-1.3,1.6-1.7.7-.4,1.5-.6,2.4-.6s1.7.2,2.3.6c.7.4,1.2,1,1.6,1.7.4.8.6,1.6.6,2.6s-.2,1.9-.6,2.6Z"/>
  <path class="st1" d="M194.7,178.3l4.6,11.3,4.7-11.3h4.2l-9.6,23.1h-4.2l2.7-6.4-6.7-16.7s4.4,0,4.4,0ZM229.5,172.8h-4.4v5.5h-3.3v3.7h3.3v13.6h4.4v-13.6h3.8v-3.7h-3.8v-5.5Z"/>
  <path class="st0" d="M244,177.9c1.9,0,3.5.4,4.8,1.2,1.4.8,2.4,1.8,3.1,3.2.7,1.4,1.1,3,1.1,4.7s-.4,3.2-1.1,4.6c-.7,1.4-1.7,2.5-3.1,3.3-1.4.8-3,1.2-4.8,1.2s-3.5-.4-4.8-1.2c-1.4-.8-2.4-1.9-3.1-3.2-.7-1.4-1.1-2.9-1.1-4.7s.4-3.3,1.1-4.7c.7-1.4,1.8-2.4,3.1-3.2,1.4-.8,3-1.2,4.8-1.2ZM246.3,191.3c.7-.4,1.2-1,1.6-1.7.4-.8.6-1.6.6-2.6s-.2-1.9-.6-2.6c-.4-.8-.9-1.3-1.6-1.7-.7-.4-1.4-.6-2.3-.6s-1.7.2-2.4.6c-.7.4-1.2,1-1.6,1.7-.4.8-.5,1.7-.5,2.7s.2,1.9.5,2.6c.4.7.9,1.3,1.6,1.7.6.4,1.5.6,2.4.6s1.7-.2,2.3-.6Z"/>
  <path class="st1" d="M283.6,184l-10.5-12h-4v23.6h4.7v-15.5l9.8,11.3v4.2h4.7v-23.6h-4.7v12Z"/>
  <path class="st0" d="M300.6,177.9c1.8,0,3.3.4,4.7,1.1h0c1.4.7,2.4,1.7,3.1,3.1.7,1.3,1.1,2.9,1.1,4.7v1.5h-13.1c0,.6.2,1.2.4,1.7.4.7.8,1.2,1.5,1.6s1.4.6,2.3.6,1.7-.2,2.3-.4,1.1-.7,1.4-1.2h4.7c-.4,1.1-.9,2-1.7,2.8-.8.8-1.7,1.5-2.9,1.9-1.1.5-2.4.7-3.8.7s-3.3-.4-4.7-1.1c-1.3-.7-2.4-1.8-3.1-3.2-.7-1.3-1.1-2.9-1.1-4.7s.4-3.4,1.1-4.7,1.8-2.4,3.1-3.2c1.4-.7,2.9-1.1,4.7-1.1ZM300.6,181.7c-.8,0-1.5.2-2.2.6-.6.4-1.2.9-1.5,1.6-.2.4-.3.8-.4,1.2h8.4c-.2-1.2-.9-2.3-2-2.8-.6-.4-1.4-.5-2.2-.5h0Z"/>
  <path class="st1" d="M318.6,172.8h-4.4v5.5h-3.3v3.7h3.3v13.6h4.4v-13.6h3.8v-3.7h-3.8v-5.5ZM326.1,170.9h4.4v24.7h-4.4v-24.7ZM335.1,195.6v-17.7c.6.4,1.3.6,2.2.6s1.6-.2,2.2-.6v17.7h-4.4,0ZM364.6,189.6l4.7-11.3h4.2l-9.6,23.1h-4.2l2.7-6.4-6.7-16.7h4.4l4.6,11.3Z"/>
</svg>